<svg width="24" height="24" viewBox="0 0 24 24" fill="none" xmlns="http://www.w3.org/2000/svg">
<g clip-path="url(#clip0)">
<path fill-rule="evenodd" clip-rule="evenodd" d="M23.0722 0.272453L15.1889 0.171712C14.9264 0.15986 14.7105 0.278379 14.5937 0.468009C14.5587 0.491712 14.5296 0.515416 14.4946 0.545046L0.478503 14.311C0.0700422 14.7258 0.0583719 15.4013 0.466833 15.8162L7.90666 23.5199C8.30928 23.9347 8.98033 23.9406 9.38295 23.5317L23.399 9.75986C23.434 9.73616 23.4398 9.6769 23.4398 9.6769C23.6324 9.52875 23.7491 9.33912 23.7608 9.07838L23.8366 1.0369C23.8366 0.622083 23.4807 0.272453 23.0722 0.272453Z" stroke="#727270" stroke-width="0.5772" stroke-miterlimit="10"/>
<path d="M17.6979 8.48014C18.813 8.48014 19.7169 7.56215 19.7169 6.42977C19.7169 5.29738 18.813 4.37939 17.6979 4.37939C16.5829 4.37939 15.679 5.29738 15.679 6.42977C15.679 7.56215 16.5829 8.48014 17.6979 8.48014Z" fill="#727270"/>
</g>
<defs>
<clipPath id="clip0">
<rect width="24" height="24" fill="white"/>
</clipPath>
</defs>
</svg>
